<svg id="Layer_1" data-name="Layer 1" xmlns="http://www.w3.org/2000/svg" width="407" height="8.4" viewBox="0 0 407 8.4"><path d="M68.3,16.7v8.4H65.8V21.5H61.4v3.6H58.9V16.7h2.5v3.6h4.4V16.7Z" transform="translate(-58.9 -16.7)"/><path d="M78.6,17.9H75.5v7.2H73V17.9H69.8l-1-1.2H79.7Z" transform="translate(-58.9 -16.7)"/><path d="M89.5,17.9H86.4v7.2H83.9V17.9H80.7l-1-1.2H90.6Z" transform="translate(-58.9 -16.7)"/><path d="M93.6,22.1v3H91.1V16.7h9.2v5.4Zm-.1-4.2v3h4.3v-3Z" transform="translate(-58.9 -16.7)"/><path d="M110.9,23.8l-1.1,1.3h-7.6l-1.1-1.2h6.8l.4-.5V21.5h-6.8V18l1.1-1.3h8.6l-1.1,1.2h-5.6l-.5.7v1.7h6.9Z" transform="translate(-58.9 -16.7)"/><path d="M112.7,19.9V18.2h1.7v1.7Zm0,3.7V21.9h1.7v1.7Z" transform="translate(-58.9 -16.7)"/><path d="M115.8,25.1l7.5-8.4H125l-7.4,8.4Zm3,0,7.4-8.4H128l-7.5,8.4Z" transform="translate(-58.9 -16.7)"/><path d="M128.4,25.1l7.5-8.4h1.7l-7.4,8.4Zm3,0,7.4-8.4h1.8l-7.5,8.4Z" transform="translate(-58.9 -16.7)"/><path d="M150.8,20.5v4.6h-9.5V16.7h9.9l-1.1,1.2h-6.3v6h4.5V20.5Z" transform="translate(-58.9 -16.7)"/><path d="M152.2,16.7h2.5v8.4h-2.5Z" transform="translate(-58.9 -16.7)"/><path d="M165.3,17.9h-3.1v7.2h-2.5V17.9h-3.2l-1.1-1.2h10.9Z" transform="translate(-58.9 -16.7)"/><path d="M175.9,16.7v8.4h-2.5V21.5h-4.3v3.6h-2.5V16.7h2.5v3.6h4.3V16.7Z" transform="translate(-58.9 -16.7)"/><path d="M186.5,16.7v8.4H177V16.7h2.5v7.2H184V16.7Z" transform="translate(-58.9 -16.7)"/><path d="M196.7,25.1h-9.2V16.7H196v3.2h.7ZM190,17.9v2h4.2v-2Zm0,3.2v2.8h4.2V21.1Z" transform="translate(-58.9 -16.7)"/><path d="M198.4,25.1V23.3h1.7v1.8Z" transform="translate(-58.9 -16.7)"/><path d="M211.3,23.9l-1.1,1.2h-8.4V16.7h9.5l-1.1,1.2h-5.8v6Z" transform="translate(-58.9 -16.7)"/><path d="M214,25.1l-2-2.3V16.7h9.5v8.4Zm.5-7.2v4.3l1.4,1.7H219v-6Z" transform="translate(-58.9 -16.7)"/><path d="M222.6,25.1V16.7l5.2,3.4,5.1-3.4v8.4h-2.4V20.3L227.8,22l-2.7-1.7v4.8Z" transform="translate(-58.9 -16.7)"/><path d="M233.7,25.1l7.4-8.4h1.8l-7.5,8.4Zm2.9,0,7.5-8.4h1.7l-7.5,8.4Z" transform="translate(-58.9 -16.7)"/><path d="M249,22.1v3h-2.5V16.7h9.3v5.4Zm0-4.2v3h4.3v-3Z" transform="translate(-58.9 -16.7)"/><path d="M257,16.7h2.5v8.4H257Z" transform="translate(-58.9 -16.7)"/><path d="M263.2,22.1v3h-2.5V16.7H270v5.4Zm0-4.2v3h4.3v-3Z" transform="translate(-58.9 -16.7)"/><path d="M279.4,23.9l1.1,1.2h-9.4V16.7h9.4l-1,1.2h-5.9v2.4H280v1.2h-6.4v2.4Z" transform="translate(-58.9 -16.7)"/><path d="M282.1,25.1,281,23.9h4.6V16.7h2.5v8.4Z" transform="translate(-58.9 -16.7)"/><path d="M291.1,25.1l-2-2.3V16.7h9.5v8.4Zm.5-7.2v4.3l1.4,1.7h3.1v-6Z" transform="translate(-58.9 -16.7)"/><path d="M309.1,23.8l-1,1.3h-7.6l-1.1-1.2h6.8l.4-.5V21.5h-6.9V18l1.2-1.3h8.5l-1,1.2h-5.6l-.6.7v1.7h6.9Z" transform="translate(-58.9 -16.7)"/><path d="M319.6,16.7v8.4h-2.5V21.5h-4.4v3.6h-2.5V16.7h2.5v3.6h4.4V16.7Z" transform="translate(-58.9 -16.7)"/><path d="M320.3,25.1l7.5-8.4h1.7L322,25.1Zm2.9,0,7.5-8.4h1.7L325,25.1Z" transform="translate(-58.9 -16.7)"/><path d="M335.7,22.1v3h-2.5V16.7h9.3v5.4Zm0-4.2v3h4.2v-3Z" transform="translate(-58.9 -16.7)"/><path d="M351.9,23.9l1,1.2h-9.4V16.7H353l-1.1,1.2h-5.8v2.4h6.3v1.2h-6.3v2.4Z" transform="translate(-58.9 -16.7)"/><path d="M356.2,22.1v3h-2.5V16.7H363v5.4Zm0-4.2v3h4.3v-3Z" transform="translate(-58.9 -16.7)"/><path d="M373.5,16.7v8.4h-9.4V16.7h2.5v7.2H371V16.7Z" transform="translate(-58.9 -16.7)"/><path d="M374.7,16.7h2.5v8.4h-2.5Z" transform="translate(-58.9 -16.7)"/><path d="M387.8,25.1l-6.9-4.6v4.6h-2.5V16.7l6.9,4.5V16.7h2.5Z" transform="translate(-58.9 -16.7)"/><path d="M390.8,25.1l-2-2.3V16.7h9.5v8.4Zm.5-7.2v4.3l1.4,1.7h3.1v-6Z" transform="translate(-58.9 -16.7)"/><path d="M405.1,20.5l1.1,1.2h-6.8l1.1-1.2Z" transform="translate(-58.9 -16.7)"/><path d="M413.2,20.8l3.7,4.3h-2.8L411,21.5h-1.2v3.6h-2.5V16.7h2.5v3.5H411l3-3.5h2.9Z" transform="translate(-58.9 -16.7)"/><path d="M423.7,23.9V21.4h-5.3V20.1h5.3V17.9h-5.3l-1-1.2h8.8v8.4h-8.8l1-1.2Z" transform="translate(-58.9 -16.7)"/><path d="M433,20.5l1.1,1.2h-6.8l1-1.2Z" transform="translate(-58.9 -16.7)"/><path d="M445.5,25.1h-2.9l-4.5-5.2h4.2v-2h-4.6v7.2h-2.6V16.7h9.7v4.5h-2.7Z" transform="translate(-58.9 -16.7)"/><path d="M455.6,20.5v4.6H446V16.7h10l-1.1,1.2h-6.3v6h4.5V20.5Z" transform="translate(-58.9 -16.7)"/><path d="M465.9,25.1h-9.2V16.7h8.5v3.2h.7Zm-6.7-7.2v2h4.2v-2Zm0,3.2v2.8h4.2V21.1Z" transform="translate(-58.9 -16.7)"/></svg>