<svg id="Layer_1" data-name="Layer 1" xmlns="http://www.w3.org/2000/svg" width="120" height="38.9" viewBox="0 0 120 38.9"><path d="M3.4,27.9l-1.7-.3c-.5,0-.7-.3-.8-.8s-.6-2.5.5-3.3,1.8-1.9,3.3-1.7.5-.2.5-.3a.8.8,0,0,0-.2-.6c-.2-.2-2.6-3.6-3.7-5.5S.3,11.3.1,9.2A4.9,4.9,0,0,1,1.5,5.4L3.2,3.3,6.3,1.1a7.2,7.2,0,0,1,2-.9A12.2,12.2,0,0,1,11.6,0a13,13,0,0,1,7.5,3.4,9.8,9.8,0,0,1,2.8,5.4,26.2,26.2,0,0,1,0,5.6c-.3,3.1-2,5-4.4,6.7v.2c1.1-.4,1.9.2,2.8.7a3.8,3.8,0,0,1,1.4,2.6A2.6,2.6,0,0,1,20,27.4c-.6.2-.7.5-.8,1.1a15.3,15.3,0,0,1-.7,3.6,1.2,1.2,0,0,0,.1,1.3.9.9,0,0,1,.2,1.1h-.1v.2c.3,1.2-.6,1.8-1.3,2.4a5.4,5.4,0,0,1-2.7,1.1,2.1,2.1,0,0,1-2.2-.8l-1,.7a1.3,1.3,0,0,1-1.4.7,9.3,9.3,0,0,1-2.9-.5c-1.2-.8-2.5-1.6-2.6-3.2a9.9,9.9,0,0,1,.2-1.7A9.1,9.1,0,0,1,3.4,27.9ZM21.2,11.4c-.2-.8-.3-1.6-.5-2.3a8.9,8.9,0,0,0-2.5-4.8L16.4,2.8l-1.3-.5A7.2,7.2,0,0,0,8.9,1.2a10.6,10.6,0,0,0-7.2,6c-1.2,2.5-.8,4.9.2,7.3a26.9,26.9,0,0,0,2.8,4.6,7.9,7.9,0,0,0,1.5,1.2,1.6,1.6,0,0,1,.3.9L5,26.4a8.7,8.7,0,0,0-.4,4.8,2.4,2.4,0,0,0,1.7,1.9,18.2,18.2,0,0,1,4.4,1.7,3.4,3.4,0,0,0,2.8.3l1.8-.9,1.2-.8c1-.8.9-2.1,1.4-3.1a3.6,3.6,0,0,0,.4-1.1,18.8,18.8,0,0,0-.5-3.3c-.4-1.4-.9-2.8-1.4-4.1s-.5-1,.2-1.4a7.9,7.9,0,0,0,2.2-1.9,9.5,9.5,0,0,0,1.7-2.7A31.1,31.1,0,0,0,21.2,11.4ZM11,36.3a13.2,13.2,0,0,0-2.5-1.6,12.7,12.7,0,0,0-2.8-.6,1.7,1.7,0,0,0,0,1,3.8,3.8,0,0,0,2.5,2.7C9.7,38.6,11,37.9,11,36.3ZM4.8,22.9a3.1,3.1,0,0,0-3.2,2.7,2,2,0,0,0,.8,1.2,1.2,1.2,0,0,0,1-.2C4.5,25.7,4.4,24.3,4.8,22.9Zm12.9-.8c.5,1.6.9,3,1.4,4.3s.3.3.5.3a1.8,1.8,0,0,0,1.2-1.2A4.1,4.1,0,0,0,17.7,22.1Zm0,12-4.6,2.3c.2.9.3,1,1.4.8l2.3-.8A2.1,2.1,0,0,0,17.7,34.1Z" transform="translate(-0.1 0)"/><path d="M8,14.1c-2.1,0-2.7-.2-2.7-1.2S5.9,11,6.5,11s1.8.5,1.9,2.3a2.2,2.2,0,0,1,2.7-1.1c1.5.2,3,0,4.4.3a3.4,3.4,0,0,1,2.7,3.3,5.3,5.3,0,0,1-1.5,4.1c-2,1.8-4.2,2.1-6.4.3s-1.6-1.3-2.2-2a2.8,2.8,0,0,1-.4-2.9Zm4.2-.9c-1.4,0-2.5-.1-3.2,1a3,3,0,0,0-.1,3.4,23.1,23.1,0,0,0,2.4,2c2.1,1.4,2.8,1.1,4.7-.3s1.2-2,1.4-3.1a3,3,0,0,0-1.7-2.6Z" transform="translate(-0.1 0)"/><path d="M19.7,12.2c0,.8-.5,1.7-1.2,1.6a1,1,0,0,1-1-1.1c0-.8.6-1.8,1.1-1.8A1.2,1.2,0,0,1,19.7,12.2Z" transform="translate(-0.1 0)"/><path d="M30.4,10.9v4.2H26.8V3.1H40.2v7.8Zm0-6V9.1h6.2V4.9Z" transform="translate(-0.1 0)" style="fill:#231f20"/><path d="M53.5,13.4l1.6,1.7H41.6V3.1H55.1L53.6,4.9H45.2V8.2h9.1V10H45.2v3.4Z" transform="translate(-0.1 0)" style="fill:#231f20"/><path d="M59.8,10.9v4.2H56.2V3.1H69.5v7.8Zm-.1-6V9.1h6.2V4.9Z" transform="translate(-0.1 0)" style="fill:#231f20"/><path d="M84.4,3.1v12H70.9V3.1h3.6V13.4h6.4V3.1Z" transform="translate(-0.1 0)" style="fill:#231f20"/><path d="M86.2,3.1h3.6v12H86.2Z" transform="translate(-0.1 0)" style="fill:#231f20"/><path d="M105,15.1,95.1,8.6v6.5H91.5V3.1l9.9,6.5V3.1H105Z" transform="translate(-0.1 0)" style="fill:#231f20"/><path d="M109.3,15.1l-2.9-3.3V3.1H120v12ZM110,4.9V11l2,2.4h4.4V4.9Z" transform="translate(-0.1 0)" style="fill:#231f20"/><path d="M35.4,29.7l5.3,6.1h-4l-4.5-5.2H30.4v5.2H26.8v-12h3.6v5h1.8l4.4-5h4.1Z" transform="translate(-0.1 0)" style="fill:#231f20"/><path d="M50.4,34.1V30.5H42.9V28.7h7.5V25.5H42.9l-1.5-1.7H54v12H41.4l1.5-1.7Z" transform="translate(-0.1 0)" style="fill:#231f20"/><path d="M75.5,35.8H71.2l-6.4-7.4h6.1V25.5H64.2V35.8H60.5v-12H74.4v6.4H70.6Z" transform="translate(-0.1 0)" style="fill:#231f20"/><path d="M89.9,29.3v6.5H76.2v-12H90.5l-1.6,1.7h-9v8.6h6.4V29.3Z" transform="translate(-0.1 0)" style="fill:#231f20"/><path d="M104.8,35.8H91.5v-12h12.2v4.6h1.1ZM95.1,25.5v2.9h6.1V25.5Zm0,4.6v4h6.1v-4Z" transform="translate(-0.1 0)" style="fill:#231f20"/></svg>