<svg id="Layer_1" data-name="Layer 1" xmlns="http://www.w3.org/2000/svg" width="86.5" height="9.9" viewBox="0 0 86.5 9.9"><path d="M20.9,21.7v3.5h-3v-10h11v6.5Zm-.1-5v3.5h5.1V16.7Z" transform="translate(-17.9 -15.2)"/><path d="M30.3,15.2h3v10h-3Z" transform="translate(-17.9 -15.2)"/><path d="M37.7,21.7v3.5h-3v-10h11v6.5Zm0-5v3.5h5V16.7Z" transform="translate(-17.9 -15.2)"/><path d="M56.9,23.7l1.2,1.5H47v-10H58.2l-1.3,1.5H50v2.8h7.5v1.4H50v2.8Z" transform="translate(-17.9 -15.2)"/><path d="M60,25.2l-1.3-1.5h5.5V15.2h2.9v10Z" transform="translate(-17.9 -15.2)"/><path d="M70.7,25.2l-2.4-2.8V15.2H79.5v10Zm.5-8.5v5.1l1.7,1.9h3.7v-7Z" transform="translate(-17.9 -15.2)"/><path d="M92,23.7l-1.3,1.5H81.8l-1.3-1.5h8l.5-.6V20.9H80.9V16.8l1.3-1.6H92.4l-1.3,1.5H84.5l-.7.7v2.1H92Z" transform="translate(-17.9 -15.2)"/><path d="M104.4,15.2v10h-3V20.9H96.2v4.3H93.3v-10h2.9v4.3h5.2V15.2Z" transform="translate(-17.9 -15.2)"/></svg>